<svg version="1.1" xmlns="http://www.w3.org/2000/svg" xmlns:xlink="http://www.w3.org/1999/xlink" width="641.25" height="641.25"><g><path fill="gray" stroke="none" paint-order="stroke fill markers" d=" M 251 310.4715 L 251 378.4715 L 207 378.4715 L 207 415.4715 L 135 415.4715 L 135 378.4715 L 44 378.4715 L 44 358.4715 L -80 358.4715 L -80 406.4715 L -300 406.4715 L -300 424.4715 L -376 424.4715 L -376 350.4715 L -326 350.4715 L -326 288.4715 L -231 288.4715 L -231 352.4715 L -176 352.4715 L -176 281.4715 L -80 281.4715 L -80 306.4715 L 21 306.4715 L 21 310.4715 Z"></path></g><g><path fill="gray" stroke="none" paint-order="stroke fill markers" d=" M 251 310.4715 L 251 378.4715 L 207 378.4715 L 207 415.4715 L 135 415.4715 L 135 378.4715 L 44 378.4715 L 44 358.4715 L -80 358.4715 L -80 406.4715 L -300 406.4715 L -300 424.4715 L -376 424.4715 L -376 350.4715 L -326 350.4715 L -326 288.4715 L -231 288.4715 L -231 352.4715 L -176 352.4715 L -176 281.4715 L -80 281.4715 L -80 306.4715 L 21 306.4715 L 21 310.4715 Z"></path></g><g><path fill="gray" stroke="none" paint-order="stroke fill markers" d=" M 251 310.4715 L 333 310.4715 L 333 476.4715 L 251 476.4715 Z"></path></g><g><path fill="gray" stroke="none" paint-order="stroke fill markers" d=" M 251 310.4715 L 333 310.4715 L 333 476.4715 L 251 476.4715 Z"></path></g><g><path fill="gray" stroke="none" paint-order="stroke fill markers" d=" M 333 310.4715 L 394 310.4715 L 394 605.4715 L 333 605.4715 Z"></path></g><g><path fill="gray" stroke="none" paint-order="stroke fill markers" d=" M 333 310.4715 L 394 310.4715 L 394 605.4715 L 333 605.4715 Z"></path></g><g><path fill="gray" stroke="none" paint-order="stroke fill markers" d=" M 407 258.4715 L 486 258.4715 L 486 310.4715 L 407 310.4715 Z"></path></g><g><path fill="gray" stroke="none" paint-order="stroke fill markers" d=" M 407 258.4715 L 486 258.4715 L 486 310.4715 L 407 310.4715 Z"></path></g><g><path fill="gray" stroke="none" paint-order="stroke fill markers" d=" M 251 310.4715 L 251 378.4715 L 207 378.4715 L 207 415.4715 L 135 415.4715 L 135 378.4715 L 44 378.4715 L 44 358.4715 L -80 358.4715 L -80 406.4715 L -300 406.4715 L -300 424.4715 L -376 424.4715 L -376 350.4715 L -326 350.4715 L -326 288.4715 L -231 288.4715 L -231 352.4715 L -176 352.4715 L -176 281.4715 L -80 281.4715 L -80 306.4715 L 21 306.4715 L 21 310.4715 Z"></path></g><g><path fill="gray" stroke="none" paint-order="stroke fill markers" d=" M 251 310.4715 L 251 378.4715 L 207 378.4715 L 207 415.4715 L 135 415.4715 L 135 378.4715 L 44 378.4715 L 44 358.4715 L -80 358.4715 L -80 406.4715 L -300 406.4715 L -300 424.4715 L -376 424.4715 L -376 350.4715 L -326 350.4715 L -326 288.4715 L -231 288.4715 L -231 352.4715 L -176 352.4715 L -176 281.4715 L -80 281.4715 L -80 306.4715 L 21 306.4715 L 21 310.4715 Z"></path></g><g><path fill="gray" stroke="none" paint-order="stroke fill markers" d=" M 251 310.4715 L 333 310.4715 L 333 476.4715 L 251 476.4715 Z"></path></g><g><path fill="gray" stroke="none" paint-order="stroke fill markers" d=" M 251 310.4715 L 333 310.4715 L 333 476.4715 L 251 476.4715 Z"></path></g><g><path fill="gray" stroke="none" paint-order="stroke fill markers" d=" M 333 310.4715 L 394 310.4715 L 394 605.4715 L 333 605.4715 Z"></path></g><g><path fill="gray" stroke="none" paint-order="stroke fill markers" d=" M 333 310.4715 L 394 310.4715 L 394 605.4715 L 333 605.4715 Z"></path></g><g><path fill="gray" stroke="none" paint-order="stroke fill markers" d=" M 407 258.4715 L 486 258.4715 L 486 310.4715 L 407 310.4715 Z"></path></g><g><path fill="gray" stroke="none" paint-order="stroke fill markers" d=" M 407 258.4715 L 486 258.4715 L 486 310.4715 L 407 310.4715 Z"></path></g><defs></defs><g></g><g><path fill="none" stroke="#000000" paint-order="fill stroke markers" d=" M -80 358.4715 L 44 358.4715" stroke-miterlimit="10"></path></g><g><path fill="none" stroke="#000000" paint-order="fill stroke markers" d=" M 44 358.4715 L 44 415.4715" stroke-miterlimit="10"></path></g><g><path fill="none" stroke="#000000" paint-order="fill stroke markers" d=" M 44 415.4715 L -80 415.4715" stroke-miterlimit="10"></path></g><g><path fill="none" stroke="#000000" paint-order="fill stroke markers" d=" M -80 415.4715 L -80 358.4715" stroke-miterlimit="10"></path></g><g><path fill="none" stroke="#000000" paint-order="fill stroke markers" d=" M -80 358.4715 L 44 358.4715" stroke-miterlimit="10"></path></g><g><path fill="none" stroke="#000000" paint-order="fill stroke markers" d=" M 44 358.4715 L 44 415.4715" stroke-miterlimit="10"></path></g><g><path fill="none" stroke="#000000" paint-order="fill stroke markers" d=" M 44 415.4715 L -80 415.4715" stroke-miterlimit="10"></path></g><g><path fill="none" stroke="#000000" paint-order="fill stroke markers" d=" M -80 415.4715 L -80 358.4715" stroke-miterlimit="10"></path></g><g><text fill="#000000" stroke="none" font-family="sans-serif" font-size="10px" font-style="normal" font-weight="normal" text-decoration="undefined" x="-63" y="395.0275" text-anchor="start" dominant-baseline="alphabetic" transform="matrix(1 0 0 1 0 0)">⠋⠋</text></g><g><path fill="none" stroke="#000000" paint-order="fill stroke markers" d=" M 44 378.4715 L 93 378.4715" stroke-miterlimit="10"></path></g><g><path fill="none" stroke="#000000" paint-order="fill stroke markers" d=" M 93 378.4715 L 93 415.4715" stroke-miterlimit="10"></path></g><g><path fill="none" stroke="#000000" paint-order="fill stroke markers" d=" M 93 415.4715 L 44 415.4715" stroke-miterlimit="10"></path></g><g><path fill="none" stroke="#000000" paint-order="fill stroke markers" d=" M 44 415.4715 L 44 378.4715" stroke-miterlimit="10"></path></g><g><path fill="none" stroke="#000000" paint-order="fill stroke markers" d=" M 44 378.4715 L 93 378.4715" stroke-miterlimit="10"></path></g><g><path fill="none" stroke="#000000" paint-order="fill stroke markers" d=" M 93 378.4715 L 93 415.4715" stroke-miterlimit="10"></path></g><g><path fill="none" stroke="#000000" paint-order="fill stroke markers" d=" M 93 415.4715 L 44 415.4715" stroke-miterlimit="10"></path></g><g><path fill="none" stroke="#000000" paint-order="fill stroke markers" d=" M 44 415.4715 L 44 378.4715" stroke-miterlimit="10"></path></g><g><text fill="#000000" stroke="none" font-family="sans-serif" font-size="10px" font-style="normal" font-weight="normal" text-decoration="undefined" x="61" y="405.0275" text-anchor="start" dominant-baseline="alphabetic" transform="matrix(1 0 0 1 0 0)">⠋⠑</text></g><g><path fill="none" stroke="#000000" paint-order="fill stroke markers" d=" M 289 178.4715 L 407 178.4715" stroke-miterlimit="10"></path></g><g><path fill="none" stroke="#000000" paint-order="fill stroke markers" d=" M 407 178.4715 L 407 258.4715" stroke-miterlimit="10"></path></g><g><path fill="none" stroke="#000000" paint-order="fill stroke markers" d=" M 289 310.4715 L 289 178.4715" stroke-miterlimit="10"></path></g><g><path fill="none" stroke="#000000" paint-order="fill stroke markers" d=" M 289 178.4715 L 407 178.4715" stroke-miterlimit="10"></path></g><g><path fill="none" stroke="#000000" paint-order="fill stroke markers" d=" M 407 178.4715 L 407 258.4715" stroke-miterlimit="10"></path></g><g><path fill="none" stroke="#000000" paint-order="fill stroke markers" d=" M 289 310.4715 L 289 178.4715" stroke-miterlimit="10"></path></g><g><text fill="#000000" stroke="none" font-family="sans-serif" font-size="10px" font-style="normal" font-weight="normal" text-decoration="undefined" x="306" y="253.0275" text-anchor="start" dominant-baseline="alphabetic" transform="matrix(1 0 0 1 0 0)">⠑⠑</text></g><g><path fill="none" stroke="#000000" paint-order="fill stroke markers" d=" M 407 178.4715 L 486 178.4715" stroke-miterlimit="10"></path></g><g><path fill="none" stroke="#000000" paint-order="fill stroke markers" d=" M 486 178.4715 L 486 258.4715" stroke-miterlimit="10"></path></g><g><path fill="none" stroke="#000000" paint-order="fill stroke markers" d=" M 486 258.4715 L 407 258.4715" stroke-miterlimit="10"></path></g><g><path fill="none" stroke="#000000" paint-order="fill stroke markers" d=" M 407 258.4715 L 407 178.4715" stroke-miterlimit="10"></path></g><g><path fill="none" stroke="#000000" paint-order="fill stroke markers" d=" M 407 178.4715 L 486 178.4715" stroke-miterlimit="10"></path></g><g><path fill="none" stroke="#000000" paint-order="fill stroke markers" d=" M 486 178.4715 L 486 258.4715" stroke-miterlimit="10"></path></g><g><path fill="none" stroke="#000000" paint-order="fill stroke markers" d=" M 486 258.4715 L 407 258.4715" stroke-miterlimit="10"></path></g><g><path fill="none" stroke="#000000" paint-order="fill stroke markers" d=" M 407 258.4715 L 407 178.4715" stroke-miterlimit="10"></path></g><g><text fill="#000000" stroke="none" font-family="sans-serif" font-size="10px" font-style="normal" font-weight="normal" text-decoration="undefined" x="423" y="227.0275" text-anchor="start" dominant-baseline="alphabetic" transform="matrix(1 0 0 1 0 0)">⠑⠋</text></g><g><path fill="none" stroke="#000000" paint-order="fill stroke markers" d=" M 21 310.4715 L 21 161.4715" stroke-miterlimit="10"></path></g><g><path fill="none" stroke="#000000" paint-order="fill stroke markers" d=" M 21 161.4715 L 226 161.4715" stroke-miterlimit="10"></path></g><g><path fill="none" stroke="#000000" paint-order="fill stroke markers" d=" M 226 161.4715 L 226 178.4715" stroke-miterlimit="10"></path></g><g><path fill="none" stroke="#000000" paint-order="fill stroke markers" d=" M 226 178.4715 L 289 178.4715" stroke-miterlimit="10"></path></g><g><path fill="none" stroke="#000000" paint-order="fill stroke markers" d=" M 289 178.4715 L 289 310.4715" stroke-miterlimit="10"></path></g><g><path fill="none" stroke="#000000" paint-order="fill stroke markers" d=" M 289 310.4715 L 21 310.4715" stroke-miterlimit="10"></path></g><g><path fill="none" stroke="#000000" paint-order="fill stroke markers" d=" M 21 310.4715 L 21 161.4715" stroke-miterlimit="10"></path></g><g><path fill="none" stroke="#000000" paint-order="fill stroke markers" d=" M 21 161.4715 L 226 161.4715" stroke-miterlimit="10"></path></g><g><path fill="none" stroke="#000000" paint-order="fill stroke markers" d=" M 226 161.4715 L 226 178.4715" stroke-miterlimit="10"></path></g><g><path fill="none" stroke="#000000" paint-order="fill stroke markers" d=" M 226 178.4715 L 289 178.4715" stroke-miterlimit="10"></path></g><g><path fill="none" stroke="#000000" paint-order="fill stroke markers" d=" M 289 178.4715 L 289 310.4715" stroke-miterlimit="10"></path></g><g><path fill="none" stroke="#000000" paint-order="fill stroke markers" d=" M 289 310.4715 L 21 310.4715" stroke-miterlimit="10"></path></g><g><text fill="#000000" stroke="none" font-family="sans-serif" font-size="10px" font-style="normal" font-weight="normal" text-decoration="undefined" x="38" y="245.0275" text-anchor="start" dominant-baseline="alphabetic" transform="matrix(1 0 0 1 0 0)">⠓⠃</text></g><g><path fill="none" stroke="#000000" paint-order="fill stroke markers" d=" M 486 310.4715 L 486 178.4715" stroke-miterlimit="10"></path></g><g><path fill="none" stroke="#000000" paint-order="fill stroke markers" d=" M 486 178.4715 L 571 178.4715" stroke-miterlimit="10"></path></g><g><path fill="none" stroke="#000000" paint-order="fill stroke markers" d=" M 571 178.4715 L 571 241.4715" stroke-miterlimit="10"></path></g><g><path fill="none" stroke="#000000" paint-order="fill stroke markers" d=" M 571 241.4715 L 586 241.4715" stroke-miterlimit="10"></path></g><g><path fill="none" stroke="#000000" paint-order="fill stroke markers" d=" M 586 241.4715 L 586 310.4715" stroke-miterlimit="10"></path></g><g><path fill="none" stroke="#000000" paint-order="fill stroke markers" d=" M 586 310.4715 L 486 310.4715" stroke-miterlimit="10"></path></g><g><path fill="none" stroke="#000000" paint-order="fill stroke markers" d=" M 486 310.4715 L 486 178.4715" stroke-miterlimit="10"></path></g><g><path fill="none" stroke="#000000" paint-order="fill stroke markers" d=" M 486 178.4715 L 571 178.4715" stroke-miterlimit="10"></path></g><g><path fill="none" stroke="#000000" paint-order="fill stroke markers" d=" M 571 178.4715 L 571 241.4715" stroke-miterlimit="10"></path></g><g><path fill="none" stroke="#000000" paint-order="fill stroke markers" d=" M 571 241.4715 L 586 241.4715" stroke-miterlimit="10"></path></g><g><path fill="none" stroke="#000000" paint-order="fill stroke markers" d=" M 586 241.4715 L 586 310.4715" stroke-miterlimit="10"></path></g><g><path fill="none" stroke="#000000" paint-order="fill stroke markers" d=" M 586 310.4715 L 486 310.4715" stroke-miterlimit="10"></path></g><g><text fill="#000000" stroke="none" font-family="sans-serif" font-size="10px" font-style="normal" font-weight="normal" text-decoration="undefined" x="503" y="253.0275" text-anchor="start" dominant-baseline="alphabetic" transform="matrix(1 0 0 1 0 0)">⠑⠛</text></g><g><path fill="none" stroke="#000000" paint-order="fill stroke markers" d=" M 394 310.4715 L 486 310.4715" stroke-miterlimit="10"></path></g><g><path fill="none" stroke="#000000" paint-order="fill stroke markers" d=" M 486 310.4715 L 486 389.4715" stroke-miterlimit="10"></path></g><g><path fill="none" stroke="#000000" paint-order="fill stroke markers" d=" M 486 389.4715 L 394 389.4715" stroke-miterlimit="10"></path></g><g><path fill="none" stroke="#000000" paint-order="fill stroke markers" d=" M 394 389.4715 L 394 310.4715" stroke-miterlimit="10"></path></g><g><path fill="none" stroke="#000000" paint-order="fill stroke markers" d=" M 394 310.4715 L 486 310.4715" stroke-miterlimit="10"></path></g><g><path fill="none" stroke="#000000" paint-order="fill stroke markers" d=" M 486 310.4715 L 486 389.4715" stroke-miterlimit="10"></path></g><g><path fill="none" stroke="#000000" paint-order="fill stroke markers" d=" M 486 389.4715 L 394 389.4715" stroke-miterlimit="10"></path></g><g><path fill="none" stroke="#000000" paint-order="fill stroke markers" d=" M 394 389.4715 L 394 310.4715" stroke-miterlimit="10"></path></g><g><text fill="#000000" stroke="none" font-family="sans-serif" font-size="10px" font-style="normal" font-weight="normal" text-decoration="undefined" x="411" y="358.0275" text-anchor="start" dominant-baseline="alphabetic" transform="matrix(1 0 0 1 0 0)">⠑⠓</text></g><g><path fill="none" stroke="#000000" paint-order="fill stroke markers" d=" M 486 310.4715 L 586 310.4715" stroke-miterlimit="10"></path></g><g><path fill="none" stroke="#000000" paint-order="fill stroke markers" d=" M 586 310.4715 L 586 476.4715" stroke-miterlimit="10"></path></g><g><path fill="none" stroke="#000000" paint-order="fill stroke markers" d=" M 586 476.4715 L 486 476.4715" stroke-miterlimit="10"></path></g><g><path fill="none" stroke="#000000" paint-order="fill stroke markers" d=" M 486 476.4715 L 486 310.4715" stroke-miterlimit="10"></path></g><g><path fill="none" stroke="#000000" paint-order="fill stroke markers" d=" M 486 310.4715 L 586 310.4715" stroke-miterlimit="10"></path></g><g><path fill="none" stroke="#000000" paint-order="fill stroke markers" d=" M 586 310.4715 L 586 476.4715" stroke-miterlimit="10"></path></g><g><path fill="none" stroke="#000000" paint-order="fill stroke markers" d=" M 586 476.4715 L 486 476.4715" stroke-miterlimit="10"></path></g><g><path fill="none" stroke="#000000" paint-order="fill stroke markers" d=" M 486 476.4715 L 486 310.4715" stroke-miterlimit="10"></path></g><g><text fill="#000000" stroke="none" font-family="sans-serif" font-size="10px" font-style="normal" font-weight="normal" text-decoration="undefined" x="503" y="402.0275" text-anchor="start" dominant-baseline="alphabetic" transform="matrix(1 0 0 1 0 0)"></text></g><g><path fill="none" stroke="#000000" paint-order="fill stroke markers" d=" M 486 476.4715 L 586 476.4715" stroke-miterlimit="10"></path></g><g><path fill="none" stroke="#000000" paint-order="fill stroke markers" d=" M 586 476.4715 L 586 605.4715" stroke-miterlimit="10"></path></g><g><path fill="none" stroke="#000000" paint-order="fill stroke markers" d=" M 586 605.4715 L 486 605.4715" stroke-miterlimit="10"></path></g><g><path fill="none" stroke="#000000" paint-order="fill stroke markers" d=" M 486 605.4715 L 486 476.4715" stroke-miterlimit="10"></path></g><g><path fill="none" stroke="#000000" paint-order="fill stroke markers" d=" M 486 476.4715 L 586 476.4715" stroke-miterlimit="10"></path></g><g><path fill="none" stroke="#000000" paint-order="fill stroke markers" d=" M 586 476.4715 L 586 605.4715" stroke-miterlimit="10"></path></g><g><path fill="none" stroke="#000000" paint-order="fill stroke markers" d=" M 586 605.4715 L 486 605.4715" stroke-miterlimit="10"></path></g><g><path fill="none" stroke="#000000" paint-order="fill stroke markers" d=" M 486 605.4715 L 486 476.4715" stroke-miterlimit="10"></path></g><g><text fill="#000000" stroke="none" font-family="sans-serif" font-size="10px" font-style="normal" font-weight="normal" text-decoration="undefined" x="503" y="549.0275" text-anchor="start" dominant-baseline="alphabetic" transform="matrix(1 0 0 1 0 0)"></text></g><g><path fill="none" stroke="#000000" paint-order="fill stroke markers" d=" M 394 486.4715 L 486 486.4715" stroke-miterlimit="10"></path></g><g><path fill="none" stroke="#000000" paint-order="fill stroke markers" d=" M 486 486.4715 L 486 605.4715" stroke-miterlimit="10"></path></g><g><path fill="none" stroke="#000000" paint-order="fill stroke markers" d=" M 486 605.4715 L 394 605.4715" stroke-miterlimit="10"></path></g><g><path fill="none" stroke="#000000" paint-order="fill stroke markers" d=" M 394 605.4715 L 394 486.4715" stroke-miterlimit="10"></path></g><g><path fill="none" stroke="#000000" paint-order="fill stroke markers" d=" M 394 486.4715 L 486 486.4715" stroke-miterlimit="10"></path></g><g><path fill="none" stroke="#000000" paint-order="fill stroke markers" d=" M 486 486.4715 L 486 605.4715" stroke-miterlimit="10"></path></g><g><path fill="none" stroke="#000000" paint-order="fill stroke markers" d=" M 486 605.4715 L 394 605.4715" stroke-miterlimit="10"></path></g><g><path fill="none" stroke="#000000" paint-order="fill stroke markers" d=" M 394 605.4715 L 394 486.4715" stroke-miterlimit="10"></path></g><g><text fill="#000000" stroke="none" font-family="sans-serif" font-size="10px" font-style="normal" font-weight="normal" text-decoration="undefined" x="411" y="554.0275" text-anchor="start" dominant-baseline="alphabetic" transform="matrix(1 0 0 1 0 0)">⠋⠚</text></g><g><path fill="none" stroke="#000000" paint-order="fill stroke markers" d=" M 333 605.4715 L 178 605.4715" stroke-miterlimit="10"></path></g><g><path fill="none" stroke="#000000" paint-order="fill stroke markers" d=" M 178 605.4715 L 178 533.4715" stroke-miterlimit="10"></path></g><g><path fill="none" stroke="#000000" paint-order="fill stroke markers" d=" M 178 533.4715 L 251 533.4715" stroke-miterlimit="10"></path></g><g><path fill="none" stroke="#000000" paint-order="fill stroke markers" d=" M 251 533.4715 L 251 476.4715" stroke-miterlimit="10"></path></g><g><path fill="none" stroke="#000000" paint-order="fill stroke markers" d=" M 251 476.4715 L 333 476.4715" stroke-miterlimit="10"></path></g><g><path fill="none" stroke="#000000" paint-order="fill stroke markers" d=" M 333 476.4715 L 333 605.4715" stroke-miterlimit="10"></path></g><g><path fill="none" stroke="#000000" paint-order="fill stroke markers" d=" M 333 605.4715 L 178 605.4715" stroke-miterlimit="10"></path></g><g><path fill="none" stroke="#000000" paint-order="fill stroke markers" d=" M 178 605.4715 L 178 533.4715" stroke-miterlimit="10"></path></g><g><path fill="none" stroke="#000000" paint-order="fill stroke markers" d=" M 178 533.4715 L 251 533.4715" stroke-miterlimit="10"></path></g><g><path fill="none" stroke="#000000" paint-order="fill stroke markers" d=" M 251 533.4715 L 251 476.4715" stroke-miterlimit="10"></path></g><g><path fill="none" stroke="#000000" paint-order="fill stroke markers" d=" M 251 476.4715 L 333 476.4715" stroke-miterlimit="10"></path></g><g><path fill="none" stroke="#000000" paint-order="fill stroke markers" d=" M 333 476.4715 L 333 605.4715" stroke-miterlimit="10"></path></g><g><text fill="#000000" stroke="none" font-family="sans-serif" font-size="10px" font-style="normal" font-weight="normal" text-decoration="undefined" x="195" y="549.0275" text-anchor="start" dominant-baseline="alphabetic" transform="matrix(1 0 0 1 0 0)">⠋⠁</text></g><g><path fill="none" stroke="#000000" paint-order="fill stroke markers" d=" M 394 389.4715 L 486 389.4715" stroke-miterlimit="10"></path></g><g><path fill="none" stroke="#000000" paint-order="fill stroke markers" d=" M 486 389.4715 L 486 486.4715" stroke-miterlimit="10"></path></g><g><path fill="none" stroke="#000000" paint-order="fill stroke markers" d=" M 486 486.4715 L 394 486.4715" stroke-miterlimit="10"></path></g><g><path fill="none" stroke="#000000" paint-order="fill stroke markers" d=" M 394 389.4715 L 486 389.4715" stroke-miterlimit="10"></path></g><g><path fill="none" stroke="#000000" paint-order="fill stroke markers" d=" M 486 389.4715 L 486 486.4715" stroke-miterlimit="10"></path></g><g><path fill="none" stroke="#000000" paint-order="fill stroke markers" d=" M 486 486.4715 L 394 486.4715" stroke-miterlimit="10"></path></g><g><text fill="#000000" stroke="none" font-family="sans-serif" font-size="10px" font-style="normal" font-weight="normal" text-decoration="undefined" x="411" y="446.0275" text-anchor="start" dominant-baseline="alphabetic" transform="matrix(1 0 0 1 0 0)">⠑⠊</text></g><g><path fill="none" stroke="#000000" paint-order="fill stroke markers" d=" M 135 415.4715 L 135 378.4715" stroke-miterlimit="10"></path></g><g><path fill="none" stroke="#000000" paint-order="fill stroke markers" d=" M 135 378.4715 L 93 378.4715" stroke-miterlimit="10"></path></g><g><path fill="none" stroke="#000000" paint-order="fill stroke markers" d=" M 93 378.4715 L 93 533.4715" stroke-miterlimit="10"></path></g><g><path fill="none" stroke="#000000" paint-order="fill stroke markers" d=" M 93 533.4715 L 251 533.4715" stroke-miterlimit="10"></path></g><g><path fill="none" stroke="#000000" paint-order="fill stroke markers" d=" M 251 533.4715 L 251 378.4715" stroke-miterlimit="10"></path></g><g><path fill="none" stroke="#000000" paint-order="fill stroke markers" d=" M 251 378.4715 L 207 378.4715" stroke-miterlimit="10"></path></g><g><path fill="none" stroke="#000000" paint-order="fill stroke markers" d=" M 207 378.4715 L 207 415.4715" stroke-miterlimit="10"></path></g><g><path fill="none" stroke="#000000" paint-order="fill stroke markers" d=" M 207 415.4715 L 135 415.4715" stroke-miterlimit="10"></path></g><g><path fill="none" stroke="#000000" paint-order="fill stroke markers" d=" M 135 415.4715 L 135 378.4715" stroke-miterlimit="10"></path></g><g><path fill="none" stroke="#000000" paint-order="fill stroke markers" d=" M 135 378.4715 L 93 378.4715" stroke-miterlimit="10"></path></g><g><path fill="none" stroke="#000000" paint-order="fill stroke markers" d=" M 93 378.4715 L 93 533.4715" stroke-miterlimit="10"></path></g><g><path fill="none" stroke="#000000" paint-order="fill stroke markers" d=" M 93 533.4715 L 251 533.4715" stroke-miterlimit="10"></path></g><g><path fill="none" stroke="#000000" paint-order="fill stroke markers" d=" M 251 533.4715 L 251 378.4715" stroke-miterlimit="10"></path></g><g><path fill="none" stroke="#000000" paint-order="fill stroke markers" d=" M 251 378.4715 L 207 378.4715" stroke-miterlimit="10"></path></g><g><path fill="none" stroke="#000000" paint-order="fill stroke markers" d=" M 207 378.4715 L 207 415.4715" stroke-miterlimit="10"></path></g><g><path fill="none" stroke="#000000" paint-order="fill stroke markers" d=" M 207 415.4715 L 135 415.4715" stroke-miterlimit="10"></path></g><g><path fill="none" stroke="#000000" paint-order="fill stroke markers" d=" M 394 605.4715 L 333 605.4715" stroke-miterlimit="10"></path></g><g><path fill="#ffffff" stroke="#000000" paint-order="fill stroke markers" d=" M 360.2869318181818 605.4715 A 7.2869318181818175 7.2869318181818175 0 1 1 360.2869281747162 605.4642130693964" stroke-miterlimit="10" stroke-width="2"></path></g><g><path fill="none" stroke="#000000" paint-order="fill stroke markers" d=" M 394 605.4715 L 333 605.4715" stroke-miterlimit="10"></path></g><g><path fill="#ffffff" stroke="#000000" paint-order="fill stroke markers" d=" M 360.2869318181818 605.4715 A 7.2869318181818175 7.2869318181818175 0 1 1 360.2869281747162 605.4642130693964" stroke-miterlimit="10" stroke-width="2"></path></g><g><path fill="#ffffff" stroke="#000000" paint-order="fill stroke markers" d=" M -57.71306818181818 358.4715 A 7.2869318181818175 7.2869318181818175 0 1 1 -57.71307182528379 358.4642130693963" stroke-miterlimit="10" stroke-width="2"></path></g><g><path fill="#ffffff" stroke="#000000" paint-order="fill stroke markers" d=" M 100.28693181818181 392.4715 A 7.2869318181818175 7.2869318181818175 0 1 1 100.28692817471621 392.4642130693963" stroke-miterlimit="10" stroke-width="2"></path></g><g><path fill="#ffffff" stroke="#000000" paint-order="fill stroke markers" d=" M 356.2869318181818 178.4715 A 7.2869318181818175 7.2869318181818175 0 1 1 356.2869281747162 178.4642130693963" stroke-miterlimit="10" stroke-width="2"></path></g><g><path fill="#ffffff" stroke="#000000" paint-order="fill stroke markers" d=" M 478.2869318181818 258.4715 A 7.2869318181818175 7.2869318181818175 0 1 1 478.2869281747162 258.4642130693963" stroke-miterlimit="10" stroke-width="2"></path></g><g><path fill="#ffffff" stroke="#000000" paint-order="fill stroke markers" d=" M 53.28693181818182 310.4715 A 7.2869318181818175 7.2869318181818175 0 1 1 53.28692817471621 310.4642130693963" stroke-miterlimit="10" stroke-width="2"></path></g><g><path fill="#ffffff" stroke="#000000" paint-order="fill stroke markers" d=" M 268.2869318181818 310.4715 A 7.2869318181818175 7.2869318181818175 0 1 1 268.2869281747162 310.4642130693963" stroke-miterlimit="10" stroke-width="2"></path></g><g><path fill="#ffffff" stroke="#000000" paint-order="fill stroke markers" d=" M 493.2869318181818 285.4715 A 7.2869318181818175 7.2869318181818175 0 1 1 493.2869281747162 285.4642130693963" stroke-miterlimit="10" stroke-width="2"></path></g><g><path fill="#ffffff" stroke="#000000" paint-order="fill stroke markers" d=" M 401.2869318181818 377.4715 A 7.2869318181818175 7.2869318181818175 0 1 1 401.2869281747162 377.4642130693963" stroke-miterlimit="10" stroke-width="2"></path></g><g><path fill="#ffffff" stroke="#000000" paint-order="fill stroke markers" d=" M 535.2869318181819 605.4715 A 7.2869318181818175 7.2869318181818175 0 1 1 535.2869281747162 605.4642130693964" stroke-miterlimit="10" stroke-width="2"></path></g><g><path fill="#ffffff" stroke="#000000" paint-order="fill stroke markers" d=" M 493.2869318181818 582.4715 A 7.2869318181818175 7.2869318181818175 0 1 1 493.2869281747162 582.4642130693964" stroke-miterlimit="10" stroke-width="2"></path></g><g><path fill="#ffffff" stroke="#000000" paint-order="fill stroke markers" d=" M 340.2869318181818 562.4715 A 7.2869318181818175 7.2869318181818175 0 1 1 340.2869281747162 562.4642130693964" stroke-miterlimit="10" stroke-width="2"></path></g><g><path fill="#ffffff" stroke="#000000" paint-order="fill stroke markers" d=" M 142.2869318181818 394.4715 A 7.2869318181818175 7.2869318181818175 0 1 1 142.28692817471622 394.4642130693963" stroke-miterlimit="10" stroke-width="2"></path></g><g><path fill="#ffffff" stroke="#000000" paint-order="fill stroke markers" d=" M 214.2869318181818 395.4715 A 7.2869318181818175 7.2869318181818175 0 1 1 214.28692817471622 395.4642130693963" stroke-miterlimit="10" stroke-width="2"></path></g><g><path fill="#ffffff" stroke="#000000" paint-order="fill stroke markers" d=" M 360.2869318181818 605.4715 A 7.2869318181818175 7.2869318181818175 0 1 1 360.2869281747162 605.4642130693964" stroke-miterlimit="10" stroke-width="2"></path></g><g><text fill="#000000" stroke="none" font-family="Braille29" font-size="23.3182px" font-style="normal" font-weight="normal" text-decoration="undefined" x="29.14772727272727" y="93.27272727272727" text-anchor="start" dominant-baseline="alphabetic" transform="matrix(1 0 0 1 0 0)">⠎⠑⠉⠞⠊⠕⠝</text><text fill="#000000" stroke="none" font-family="Braille29" font-size="23.3182px" font-style="normal" font-weight="normal" text-decoration="undefined" x="29.14772727272727" y="29.14772727272727" text-anchor="start" dominant-baseline="alphabetic" transform="matrix(1 0 0 1 0 0)">⠠⠧⠊⠎⠞⠁ ⠠⠉⠑⠝⠞⠑⠗ ⠠⠞⠑⠎⠞</text><text fill="#000000" stroke="none" font-family="Braille29" font-size="23.3182px" font-style="normal" font-weight="normal" text-decoration="undefined" x="29.14772727272727" y="58.29545454545454" text-anchor="start" dominant-baseline="alphabetic" transform="matrix(1 0 0 1 0 0)">⠠⠋⠇⠕⠕⠗ ⠼⠁</text></g></svg>